<svg width="503" height="503" viewBox="0 0 503 503" fill="none" xmlns="http://www.w3.org/2000/svg">
<path d="M251.24 0C112.48 0 0 112.49 0 251.24C0 390 112.49 502.48 251.24 502.48C390 502.48 502.48 389.99 502.48 251.24C502.476 112.49 390 0 251.24 0V0ZM343.642 355.88C343.642 360.443 338.478 363.087 334.779 360.427L214.439 273.974V361.193C214.439 364.283 211.931 366.794 208.837 366.794H164.036C160.946 366.794 158.435 364.287 158.435 361.193V139.073C158.435 135.983 160.942 133.471 164.036 133.471H208.837C211.927 133.471 214.439 135.979 214.439 139.073V226.292L334.779 139.839C338.486 137.179 343.642 139.823 343.642 144.386V355.88Z" fill="white"/>
</svg>
