<svg width="198" height="350" viewBox="0 0 198 350" fill="none" xmlns="http://www.w3.org/2000/svg">
<path d="M190.536 6.5703C186.333 2.3633 180.634 0 174.688 0C168.743 0 163.04 2.3633 158.84 6.5703L6.57031 158.72C2.36331 162.923 0 168.623 0 174.568C0 180.514 2.36331 186.213 6.57031 190.416L158.84 342.566C163.004 346.941 168.758 349.449 174.797 349.523C180.84 349.594 186.652 347.223 190.918 342.949C195.184 338.672 197.547 332.855 197.461 326.816C197.379 320.777 194.864 315.027 190.481 310.871L54.0608 174.571L190.481 38.2711C194.692 34.0758 197.067 28.3805 197.078 22.4351C197.086 16.4898 194.735 10.7831 190.535 6.5761L190.536 6.5703Z" fill="white"/>
</svg>
