<svg width="561" height="560" viewBox="0 0 561 560" fill="none" xmlns="http://www.w3.org/2000/svg">
<path d="M560.002 279.998C560.002 351.166 529.67 419.998 474.834 474.828C472.502 477.164 470.17 478.328 466.67 478.328C463.17 478.328 460.838 477.16 458.502 474.828L423.502 439.828L439.834 423.496L466.666 450.328C512.166 401.328 536.666 341.828 536.666 279.998C536.666 215.83 508.666 151.668 458.498 101.498L474.83 85.166C529.67 139.998 560.002 208.826 560.002 279.996L560.002 279.998ZM93.332 109.668L120.164 136.5L136.496 120.168L101.496 85.168C96.828 80.5 89.828 80.5 85.164 85.168C30.332 140 0 208.828 0 279.998C0 351.168 30.332 419.998 85.168 474.828L101.5 458.496C51.332 408.328 23.332 344.166 23.332 279.996C23.332 219.328 47.832 158.666 93.332 109.666V109.668ZM280.002 70C395.502 70 490.002 164.5 490.002 280H513.334C513.334 151.67 408.334 46.67 280.004 46.67L280.002 70ZM280.002 490C164.502 490 70.002 395.5 70.002 280H46.67C46.67 408.33 151.67 513.33 280 513.33L280.002 490ZM347.67 250.83C350.002 254.33 350.002 257.83 348.838 262.498L278.838 414.168C276.502 417.668 273.002 420 268.334 420H245.002C241.502 420 238.002 418.832 235.67 415.332C233.334 413 233.334 409.5 233.334 406L253.166 315H221.67C218.17 315 214.67 313.832 212.338 311.5C210.002 309.168 210.002 304.5 210.002 301L233.334 149.33C234.502 143.498 239.166 139.998 245.002 139.998H315.002C318.502 139.998 322.002 142.33 324.334 144.666C326.666 148.166 326.666 151.666 325.502 155.166L296.334 244.998H338.334C341.834 244.998 346.502 247.33 347.67 250.83H347.67ZM319.67 268.33H280.002C276.502 268.33 273.002 265.998 270.67 263.662C268.338 260.162 268.338 256.662 269.502 253.162L299.834 163.33H255.502L235.67 291.66L268.334 291.664C271.834 291.664 275.334 292.832 277.666 296.332C279.998 298.664 281.166 302.164 279.998 305.664L259.002 396.664H260.17L319.67 268.33ZM315.002 560H338.334V536.668H315.002V560ZM268.334 560H291.666V536.668H268.334V560ZM221.67 560H245.002V536.668H221.67V560ZM338.33 0H314.998V23.332H338.33V0ZM291.666 0H268.334V23.332H291.666V0ZM244.998 0H221.666V23.332H244.998V0Z" fill="white"/>
</svg>
