<svg width="503" height="503" viewBox="0 0 503 503" fill="none" xmlns="http://www.w3.org/2000/svg">
<path d="M251.24 0C112.48 0 0 112.49 0 251.24C0 390 112.49 502.48 251.24 502.48C390 502.48 502.48 389.99 502.48 251.24C502.48 112.49 389.99 0 251.24 0V0ZM344.049 363.42C344.049 366.51 341.541 369.022 338.447 369.022H293.646C290.557 369.022 288.045 366.514 288.045 363.42L288.049 276.201L167.709 362.654C164.002 365.314 158.845 362.67 158.845 358.107L158.842 146.607C158.842 142.045 164.006 139.4 167.705 142.06L288.045 228.513L288.049 141.286C288.049 138.196 290.557 135.685 293.65 135.685H338.451C341.541 135.685 344.053 138.192 344.053 141.286L344.049 363.42Z" fill="white"/>
</svg>
