<svg width="448" height="443" viewBox="0 0 448 443" fill="none" xmlns="http://www.w3.org/2000/svg">
<path d="M425.596 0.000999451H422.237L155.117 50.962C143.355 51.5206 134.398 61.603 134.398 75.04V291.2C119.839 280.559 101.918 274.399 84 274.399C37.52 274.399 0 311.919 0 358.399C0 404.879 37.52 442.399 84 442.399C130.48 442.399 168 404.879 168 358.399L167.996 82.319L414.396 35.839V246.399C399.837 235.758 381.916 229.598 363.998 229.598C317.518 229.598 279.998 267.118 279.998 313.598C279.998 360.078 317.518 397.598 363.998 397.598C410.478 397.598 447.998 360.078 447.998 313.598V24.078C447.998 10.078 438.479 0 425.6 0L425.596 0.000999451Z" fill="white"/>
</svg>
