<svg width="348" height="348" viewBox="0 0 348 348" fill="none" xmlns="http://www.w3.org/2000/svg">
<path d="M173.598 347.196C219.641 347.196 263.797 328.903 296.348 296.348C328.903 263.793 347.196 219.637 347.196 173.598C347.196 127.559 328.903 83.399 296.348 50.848C263.793 18.293 219.637 0 173.598 0C127.559 0 83.399 18.293 50.848 50.848C18.293 83.403 0 127.559 0 173.598C0 219.637 18.293 263.797 50.848 296.348C83.403 328.903 127.559 347.196 173.598 347.196V347.196ZM89.598 285.594C100.477 265.196 118.403 249.457 140.036 241.305C161.669 233.157 185.528 233.157 207.161 241.305C228.794 249.457 246.72 265.196 257.599 285.594C233.384 303.813 203.904 313.664 173.599 313.664C143.294 313.664 113.814 303.812 89.599 285.594H89.598ZM134.399 162.394C134.399 151.996 138.528 142.027 145.879 134.675C153.231 127.323 163.199 123.195 173.598 123.195C183.997 123.195 193.965 127.324 201.317 134.675C208.669 142.027 212.797 151.995 212.797 162.394C212.797 172.789 208.668 182.761 201.317 190.113C193.965 197.465 183.997 201.593 173.598 201.593C163.199 201.593 153.231 197.464 145.879 190.113C138.527 182.761 134.399 172.789 134.399 162.394ZM173.598 33.594C208.993 33.6292 243.063 47.071 268.946 71.215C294.833 95.36 310.61 128.41 313.106 163.719C315.606 199.024 304.633 233.969 282.407 261.516C268.786 240.078 249.153 223.133 225.958 212.793C239.251 199.004 246.571 180.531 246.337 161.379C246.103 142.227 238.329 123.941 224.704 110.481C211.079 97.02 192.696 89.473 173.544 89.473C154.388 89.473 136.009 97.0199 122.384 110.481C108.755 123.942 100.982 142.227 100.747 161.379C100.513 180.531 107.833 199.004 121.126 212.793C97.927 223.078 78.314 240.039 64.79 261.516C42.563 233.969 31.591 199.024 34.091 163.719C36.5871 128.41 52.364 95.36 78.251 71.215C104.134 47.07 138.204 33.629 173.599 33.594H173.598Z" fill="white"/>
</svg>
