<svg width="202" height="202" viewBox="0 0 202 202" fill="none" xmlns="http://www.w3.org/2000/svg">
<path d="M199.961 192.038C202.149 194.226 202.149 197.773 199.961 199.96C197.774 202.148 194.227 202.148 192.039 199.96L131.738 139.659C130.633 138.554 128.754 138.468 127.578 139.433C127.578 139.433 126.66 140.226 125.047 141.421C112.012 151.085 95.875 156.8 78.402 156.8C35.101 156.8 0 121.698 0 78.402C0 35.101 35.102 0 78.402 0C121.699 0 156.8 35.102 156.8 78.402C156.8 95.476 151.343 111.277 142.073 124.152C140.686 126.082 139.432 127.558 139.432 127.558C138.452 128.761 138.538 130.617 139.659 131.738L199.961 192.038ZM78.4013 145.6C115.514 145.6 145.6 115.514 145.6 78.4014C145.6 41.2884 115.514 11.1983 78.4013 11.1983C41.2883 11.1983 11.1983 41.2884 11.1983 78.4014C11.1983 115.514 41.2883 145.6 78.4013 145.6Z" fill="white"/>
</svg>
